<?xml version="1.0" encoding="UTF-8"?>
<svg xmlns="http://www.w3.org/2000/svg" xmlns:xlink="http://www.w3.org/1999/xlink" width="120px" height="120px" viewBox="0 0 120 120" version="1.1">
<g id="surface1">
<path style=" stroke:none;fill-rule:evenodd;fill:rgb(0%,0%,0%);fill-opacity:1;" d="M 40.199219 6.652344,C 32.941406 10.199219 22.484375 14.339844 16.96875 15.851562,L 6.933594 18.601562,L 7.5625 32.398438,C 9.199219 68.363281 26.96875 100.105469 55.457031 117.957031,C 59.996094 120.800781 60.5625 120.664062 68.933594 114.691406,C 94.347656 96.554688 110.839844 65.136719 112.4375 31.800781,L 113.070312 18.601562,L 103.035156 15.851562,C 97.515625 14.34375 86.859375 10.15625 79.351562 6.554688,C 61.183594 -2.171875 58.234375 -2.164062 40.199219 6.652344 M 75.5 11.839844,C 82.203125 15.050781 92.046875 18.964844 97.382812 20.539062,L 107.082031 23.398438,L 106.335938 33.601562,C 104.089844 64.445312 84.613281 99.46875 63.347656 110.902344,L 59.066406 113.203125,L 52.988281 108.738281,C 30.886719 92.515625 15.566406 63.289062 13.597656 33.601562,L 12.921875 23.398438,L 22.59375 20.546875,C 27.914062 18.976562 37.5625 15.105469 44.03125 11.945312,C 58.898438 4.683594 60.558594 4.679688 75.5 11.839844 Z"/>
</g>
</svg>
